# xmcd
#
# Track frame offsets:
#	150
#	21370
#	33717
#	56583
#	79175
#	103357
#	120501
#	140661
#	164822
#	184260
#	203907
#	227913
#	250138
#	284129
#	299089
#	315156
#
# Disc length: 4400 seconds
#
# Revision: 1
# Processed by: cddbd v1.5.2PL0 Copyright (c) Steve Scherf et al.
# Submitted via: EasyCDDAExtractor 8.2.2.1
#
DISCID=01112e10
DTITLE=МС Вспышкин and Никифоровна - Le Шаурма
DYEAR=2005
DGENRE=Eurodance
TTITLE0=Le Шаурма
TTITLE1=Эффект достигнут (вместе с Slim Line)
TTITLE2=Зенит, вперед!
TTITLE3=Меня прет (Новогодняя)
TTITLE4=Davai, Davai (вместе с DJ Aligator Project)
TTITLE5=I'm Back (вместе с Slim Line)
TTITLE6=Колбасный цех №3 (Шишки)
TTITLE7=Бессонница
TTITLE8=Колбасный цех №2
TTITLE9=Sex
TTITLE10=Колбасный цех №3 (Nikiforovna remix)
TTITLE11=КПП
TTITLE12=Колбасный цех №3 (extended mix)
TTITLE13=Sex (Slim Line remix)
TTITLE14=Хорошо
TTITLE15=ДискотЭка
EXTD=
EXTT0=
EXTT1=
EXTT2=
EXTT3=
EXTT4=
EXTT5=
EXTT6=
EXTT7=
EXTT8=
EXTT9=
EXTT10=
EXTT11=
EXTT12=
EXTT13=
EXTT14=
EXTT15=
PLAYORDER=
